<svg width="153" height="27" viewBox="0 0 153 27" fill="none" xmlns="http://www.w3.org/2000/svg">
<path d="M0.876 13.2328C0.876 18.4888 4.1464 21.4088 9.2856 21.4088C14.4248 21.4088 17.4032 18.4888 17.4032 14.0504V13.2912H13.5488V14.1088C13.5488 16.1528 12.0888 17.9632 9.2856 17.9632C6.4824 17.9632 4.7304 16.1528 4.7304 13.2912V8.2688C4.7304 5.4072 6.4824 3.5968 9.2856 3.5968C12.0888 3.5968 13.5488 5.4072 13.5488 7.4512V8.0352H17.4032V7.5096C17.4032 3.0712 14.4248 0.151198 9.2856 0.151198C4.1464 0.151198 0.876 3.0712 0.876 8.3272V13.2328ZM23.4205 6.5168H19.7997V21H23.4789V12.5904C23.4789 10.5464 24.8221 9.5536 26.6909 9.5536H28.8517V6.4584H27.3333C25.4937 6.4584 24.2673 7.0132 23.7125 8.5608H23.4205V6.5168ZM41.9419 6.5168L38.1167 16.9704H37.8247L33.9995 6.5168H30.0283L36.0435 21.9344L33.9995 26.84H37.9707L45.9131 6.5168H41.9419ZM47.6024 26.9568H51.2816V19.1312H51.5736C52.3912 20.2992 53.7928 21.4088 56.304 21.4088C59.7496 21.4088 62.8448 18.4888 62.8448 13.7584C62.8448 9.028 59.7496 6.108 56.304 6.108C53.7928 6.108 52.3912 7.2176 51.5152 8.4732H51.2232V6.5168H47.6024V26.9568ZM55.1944 18.2552C52.9168 18.2552 51.2232 16.62 51.2232 13.7584C51.2232 10.8968 52.9168 9.2616 55.1944 9.2616C57.472 9.2616 59.1656 10.8968 59.1656 13.7584C59.1656 16.62 57.472 18.2552 55.1944 18.2552ZM63.5641 9.4952H67.1849V17.7296C67.1849 19.7152 68.4697 21 70.3969 21H74.4849V18.0216H71.6817C71.1561 18.0216 70.8641 17.7296 70.8641 17.1456V9.4952H74.8353V6.5168H70.8641V2.02H67.1849V6.5168H63.5641V9.4952ZM76.126 13.7584C76.126 18.4888 79.3964 21.4088 83.718 21.4088C88.0396 21.4088 91.31 18.4888 91.31 13.7584C91.31 9.028 88.0396 6.108 83.718 6.108C79.3964 6.108 76.126 9.028 76.126 13.7584ZM79.8052 13.7584C79.8052 10.9552 81.4404 9.32 83.718 9.32C85.9956 9.32 87.6308 10.9552 87.6308 13.7584C87.6308 16.5616 85.9956 18.1968 83.718 18.1968C81.4404 18.1968 79.8052 16.5616 79.8052 13.7584Z" fill="#F2F2F2"/>
<path d="M93.7122 26.9568H97.3914V19.1312H97.6834C98.501 20.2992 99.9026 21.4088 102.414 21.4088C105.859 21.4088 108.955 18.4888 108.955 13.7584C108.955 9.028 105.859 6.108 102.414 6.108C99.9026 6.108 98.501 7.2176 97.625 8.4732H97.333V6.5168H93.7122V26.9568ZM101.304 18.2552C99.0266 18.2552 97.333 16.62 97.333 13.7584C97.333 10.8968 99.0266 9.2616 101.304 9.2616C103.582 9.2616 105.275 10.8968 105.275 13.7584C105.275 16.62 103.582 18.2552 101.304 18.2552ZM110.459 13.7584C110.459 18.4888 113.729 21.4088 118.051 21.4088C122.372 21.4088 125.643 18.4888 125.643 13.7584C125.643 9.028 122.372 6.108 118.051 6.108C113.729 6.108 110.459 9.028 110.459 13.7584ZM114.138 13.7584C114.138 10.9552 115.773 9.32 118.051 9.32C120.328 9.32 121.964 10.9552 121.964 13.7584C121.964 16.5616 120.328 18.1968 118.051 18.1968C115.773 18.1968 114.138 16.5616 114.138 13.7584ZM127.724 10.5172C127.724 13.262 130.147 14.4884 133.184 15.1016L134.644 15.3936C136.338 15.744 137.155 16.036 137.155 16.9704C137.155 17.9048 136.279 18.5472 134.469 18.5472C132.659 18.5472 130.936 17.9048 130.264 15.4812L126.935 16.6492C128.133 19.7736 130.907 21.4088 134.527 21.4088C138.09 21.4088 140.718 19.7736 140.718 16.7952C140.718 13.8168 138.061 12.9116 135.082 12.3276L133.622 12.0356C132.045 11.7144 131.286 11.3348 131.286 10.4004C131.286 9.466 132.191 8.9696 133.651 8.9696C135.111 8.9696 136.863 9.5244 137.623 11.7728L140.893 10.4588C139.491 7.7724 136.98 6.108 133.593 6.108C130.206 6.108 127.724 7.7724 127.724 10.5172ZM141.64 9.4952H145.261V17.7296C145.261 19.7152 146.545 21 148.473 21H152.561V18.0216H149.757C149.232 18.0216 148.94 17.7296 148.94 17.1456V9.4952H152.911V6.5168H148.94V2.02H145.261V6.5168H141.64V9.4952Z" fill="#FF5C00"/>
</svg>
